<svg width="339" height="1789" viewBox="0 0 339 1789" fill="none" xmlns="http://www.w3.org/2000/svg">
<path d="M339 1382H47" stroke="#231F20"/>
<path d="M339 1192H47" stroke="#231F20"/>
<path d="M339 975H47" stroke="#231F20"/>
<path d="M339 1760H47" stroke="#231F20"/>
<path d="M339 1571H47" stroke="#231F20"/>
<line x1="13.5006" y1="975.499" x2="14.4994" y2="1759.5" stroke="#231F20" stroke-linecap="round"/>
<circle r="13.5" transform="matrix(-1 0 0 1 16.5 1191.5)" fill="#FFCA0A"/>
<path d="M51 1191.5L35.25 1165.95L35.25 1217.05L51 1191.5Z" fill="#FFCA0A"/>
<circle cx="16.5" cy="1375.5" r="13.5" fill="#16203C"/>
<path d="M51 1375.5L35.25 1349.95L35.25 1401.05L51 1375.5Z" fill="#16203C"/>
<circle r="13.5" transform="matrix(-1 0 0 1 13.5 1570.5)" fill="#A1577C"/>
<path d="M48 1570.5L32.25 1544.95L32.25 1596.05L48 1570.5Z" fill="#A1577C"/>
<circle cx="16.5" cy="1759.5" r="13.5" fill="#2E3192"/>
<path d="M51 1759.5L35.25 1733.95L35.25 1785.05L51 1759.5Z" fill="#2E3192"/>
<path d="M339 219H47" stroke="#231F20"/>
<path d="M339 408H47" stroke="#231F20"/>
<path d="M339 597H47" stroke="#231F20"/>
<path d="M339 786H47" stroke="#231F20"/>
<path d="M339 30H47" stroke="#231F20"/>
<line x1="13.5" y1="30.5" x2="13.5" y2="974.5" stroke="#231F20" stroke-linecap="round"/>
<circle r="13.5" transform="matrix(-1 0 0 1 13.5 29.5)" fill="#FFCA0A"/>
<path d="M48 29.5L32.25 3.95225L32.25 55.0477L48 29.5Z" fill="#FFCA0A"/>
<circle cx="13.5" cy="218.5" r="13.5" fill="#16203C"/>
<path d="M48 218.5L32.25 192.952L32.25 244.048L48 218.5Z" fill="#16203C"/>
<circle r="13.5" transform="matrix(-1 0 0 1 13.5 407.5)" fill="#A1577C"/>
<path d="M48 407.5L32.25 381.952L32.25 433.048L48 407.5Z" fill="#A1577C"/>
<circle cx="13.5" cy="596.5" r="13.5" fill="#2E3192"/>
<path d="M48 596.5L32.25 570.952L32.25 622.048L48 596.5Z" fill="#2E3192"/>
<circle r="13.5" transform="matrix(-1 0 0 1 13.5 785.5)" fill="#C7C4E1"/>
<path d="M48 785.5L32.25 759.952L32.25 811.048L48 785.5Z" fill="#C7C4E1"/>
<circle cx="13.5" cy="974.5" r="13.5" fill="#C4C4C4"/>
<path d="M48 974.5L32.25 948.952L32.25 1000.05L48 974.5Z" fill="#C4C4C4"/>
</svg>
